<?xml version="1.0" encoding="utf-8"?>
<!-- Generator: Adobe Illustrator 27.5.0, SVG Export Plug-In . SVG Version: 6.00 Build 0)  -->
<svg version="1.1" xmlns="http://www.w3.org/2000/svg" xmlns:xlink="http://www.w3.org/1999/xlink" x="0px" y="0px"
	 viewBox="0 0 500 500" style="enable-background:new 0 0 500 500;" xml:space="preserve">
<g id="BACKGROUND">
	<rect style="fill:#FFFFFF;" width="500" height="500"/>
</g>
<g id="OBJECT">
	<g>
		<path style="fill:#E5E5EC;" d="M258.965,89.673c0,0-53.324-2.343-83.436,45.694c-30.112,48.038-52.11,26.948-85.849,63.659
			c-33.739,36.712-26.737,113.742-22.846,145.135c3.89,31.393,17.546,66.535,17.546,66.535h358.306
			c0,0,36.605-150.437,5.198-206.223s-99.251-58.561-117.969-86.68C311.196,89.673,258.965,89.673,258.965,89.673z"/>
		<path style="fill:#DAD7EB;" d="M30.143,408.646c0,0,102.367-8.308,440.724,2.424c7.833,0.249,29.326,22.271-10.256,28.787
			c-39.582,6.516-73.446,0-130.731,9.158c-57.285,9.158-114.779-7.493-169.362-7.493s-57.39-2.766-83.24-5.57
			C35.566,431.426,6.335,412.993,30.143,408.646z"/>
		<path style="fill:#A7A3D1;" d="M377.419,395.12c-5.836-0.778-10.698,14.005-10.698,14.005s-0.022-0.026-0.055-0.062
			c-0.924-2.716-1.597-6.109-2.088-9.711c1.091-0.825,6.957-5.299,8.367-7.152c1.556-2.045,1.459-7-1.459-7.292
			c-2.918-0.292-7.1,11.865-7.1,11.865s-0.061-0.1-0.154-0.249c-0.316-2.907-0.53-5.869-0.671-8.655
			c1.503-1.62,5.025-5.534,5.786-7.435c0.973-2.431,1.07-4.863-1.07-4.863c-1.632,0-3.914,4.913-4.908,7.249
			c-0.06-2.318-0.077-4.353-0.076-5.91c0.864-1.889,2.671-5.993,3.038-8.049c0.486-2.723,0.486-6.905-1.362-7.391
			c-1.848-0.486-3.89,1.945-4.571,6.322c-0.516,3.316,1.144,7.409,1.979,9.2c-0.004,1.533,0.009,3.499,0.064,5.746
			c-0.983-2.821-3.536-9.342-6.42-10.278c-1.675-0.544-3.501,1.264-2.723,4.571c0.778,3.307,8.169,9.726,8.169,9.726l1.187,1.563
			c0.111,2.118,0.267,4.33,0.477,6.541c-1.795-2.603-5.288-7.178-8.958-9.272c-2.541-1.45-8.85,1.459-5.155,6.224
			c3.133,4.04,11.993,6.75,14.621,7.483c0.4,2.953,0.925,5.777,1.61,8.239c-3.029-3.149-10.092-9.809-14.869-8.914
			c-6.224,1.167-7.391,7.197-1.945,9.726c5.446,2.529,18.284,2.723,18.284,2.723s7.78-3.501,10.698-5.835
			C380.336,402.901,383.254,395.898,377.419,395.12z"/>
		<g>
			<g>
				<linearGradient id="SVGID_1_" gradientUnits="userSpaceOnUse" x1="36.8505" y1="342.6308" x2="54.9583" y2="368.856">
					<stop  offset="0" style="stop-color:#DC911B"/>
					<stop  offset="1" style="stop-color:#E7B142"/>
				</linearGradient>
				<path style="fill:url(#SVGID_1_);" d="M34.574,340.12c0,0-2.359,9.693,4.301,25.511s32.647,33.024,32.647,33.024
					s1.558-18.316-7.358-36.909C55.248,343.152,34.574,340.12,34.574,340.12z"/>
				
					<linearGradient id="SVGID_00000084489347196960250220000010365909550716899506_" gradientUnits="userSpaceOnUse" x1="63.6843" y1="372.4447" x2="81.2637" y2="372.4447">
					<stop  offset="0" style="stop-color:#DC911B"/>
					<stop  offset="1" style="stop-color:#E7B142"/>
				</linearGradient>
				<path style="fill:url(#SVGID_00000084489347196960250220000010365909550716899506_);" d="M71.688,347.208
					c0,0-5.328,4.954-7.625,17.259c-2.297,12.305,6.615,33.215,6.615,33.215s8.303-10.525,10.341-25.426
					C83.057,357.356,71.688,347.208,71.688,347.208z"/>
				
					<linearGradient id="SVGID_00000151502371075471233080000010794492390739799483_" gradientUnits="userSpaceOnUse" x1="50.622" y1="370.4082" x2="45.4186" y2="397.8822">
					<stop  offset="0" style="stop-color:#DC911B"/>
					<stop  offset="1" style="stop-color:#E7B142"/>
				</linearGradient>
				<path style="fill:url(#SVGID_00000151502371075471233080000010794492390739799483_);" d="M22.752,382.707
					c0,0,3.318,6.475,14.535,12.031s33.762,2.666,33.762,2.666s-7.871-10.852-21.655-16.866
					C35.61,374.526,22.752,382.707,22.752,382.707z"/>
			</g>
			
				<linearGradient id="SVGID_00000096781890141579089610000008411486051112897431_" gradientUnits="userSpaceOnUse" x1="67.8171" y1="357.1611" x2="70.5923" y2="404.8936">
				<stop  offset="0" style="stop-color:#FFE9EC"/>
				<stop  offset="1" style="stop-color:#A7A3D1"/>
			</linearGradient>
			<path style="fill:url(#SVGID_00000096781890141579089610000008411486051112897431_);" d="M49.236,408.646h61.823
				c0,0-0.876-7.732-8.656-12.81c-7.78-5.078-16.715,0-16.715,0s-4.293-10.784-20.113-10.784S47.42,396.85,47.42,396.85
				s-14.783-3.512-16.858,11.797H49.236z"/>
		</g>
		
			<linearGradient id="SVGID_00000084515953094133301800000011147403055586779529_" gradientUnits="userSpaceOnUse" x1="294.1478" y1="424.6163" x2="292.0664" y2="394.6447">
			<stop  offset="0" style="stop-color:#DC911B"/>
			<stop  offset="1" style="stop-color:#E7B142"/>
		</linearGradient>
		<path style="fill:url(#SVGID_00000084515953094133301800000011147403055586779529_);" d="M271.606,410.696h61.823
			c0,0-0.876-7.732-8.656-12.81c-7.781-5.078-16.715,0-16.715,0s-4.293-10.784-20.113-10.784s-18.154,11.797-18.154,11.797
			s-14.783-3.512-16.858,11.797H271.606z"/>
		<g>
			
				<linearGradient id="SVGID_00000140003734906247201290000014637423417405576603_" gradientUnits="userSpaceOnUse" x1="455.7707" y1="314.9093" x2="439.3759" y2="401.4742" gradientTransform="matrix(0.9715 -0.2371 0.2371 0.9715 -78.028 116.6238)">
				<stop  offset="0" style="stop-color:#FFE9EC"/>
				<stop  offset="1" style="stop-color:#A7A3D1"/>
			</linearGradient>
			<path style="fill:url(#SVGID_00000140003734906247201290000014637423417405576603_);" d="M430.732,397.769
				c0,0-1.744-7.696-1.369-13.439c0.374-5.743,7.042-6.513,7.203-11.123c0.16-4.61-1.479-10.494,4.053-13.701
				c5.532-3.207,1.208-6.294,4.571-11.828c3.363-5.534,7.298-3.781,9.336-1.707c2.038,2.074-2.762,11.672-0.4,16.666
				c2.361,4.994-5.257,14.178-4.39,16.245c0.867,2.067,3.921,5.829,3.538,11.868s-4.844,9.413-4.844,9.413L430.732,397.769z"/>
			
				<linearGradient id="SVGID_00000004505599176691380540000005160533507040893824_" gradientUnits="userSpaceOnUse" x1="444.474" y1="364.5306" x2="458.4191" y2="375.77">
				<stop  offset="0" style="stop-color:#FFE9EC"/>
				<stop  offset="1" style="stop-color:#A7A3D1"/>
			</linearGradient>
			<path style="fill:url(#SVGID_00000004505599176691380540000005160533507040893824_);" d="M436.65,395.155
				c0,0,0.949-7.834,3.236-13.115c2.286-5.282,8.824-3.762,10.527-8.048c1.703-4.287,2.141-10.379,8.43-11.536
				c6.289-1.157,3.257-5.519,8.287-9.598c5.03-4.079,8.145-1.103,9.365,1.536c1.22,2.639-6.53,10.061-5.988,15.558
				c0.542,5.497-9.723,11.58-9.603,13.819c0.12,2.238,1.729,6.809-0.665,12.366c-2.394,5.557-7.731,7.232-7.731,7.232
				L436.65,395.155z"/>
			
				<linearGradient id="SVGID_00000176764135345890357940000009196407847362577049_" gradientUnits="userSpaceOnUse" x1="384.9674" y1="399.2732" x2="465.4636" y2="399.2732">
				<stop  offset="0" style="stop-color:#DC911B"/>
				<stop  offset="1" style="stop-color:#E7B142"/>
			</linearGradient>
			<path style="fill:url(#SVGID_00000176764135345890357940000009196407847362577049_);" d="M403.641,411.07h61.823
				c0,0-0.876-7.732-8.656-12.81c-7.781-5.078-16.715,0-16.715,0s-4.293-10.784-20.113-10.784c-15.82,0-18.154,11.797-18.154,11.797
				s-14.783-3.512-16.858,11.797H403.641z"/>
		</g>
		<path style="fill:#A7A3D1;" d="M194.537,380.644c0,0,2.723,0.389,9.142,6.613c6.419,6.224,6.189,13.421,6.189,13.421
			s2.175-14.783,10.15-20.035c0,0,4.279,10.309,0,22.369c0,0,7.197-10.309,20.618-12.449c0,0-0.973,12.727-11.282,20.465H199.4
			C199.4,411.029,187.145,398.539,194.537,380.644z"/>
		<path style="fill:#E7B142;" d="M156.928,390.332c-5.835-0.778-10.698,14.005-10.698,14.005s-0.022-0.026-0.055-0.062
			c-0.924-2.716-1.597-6.109-2.088-9.711c1.091-0.825,6.957-5.299,8.367-7.152c1.556-2.045,1.459-7-1.459-7.292
			c-2.918-0.292-7.1,11.865-7.1,11.865s-0.061-0.1-0.154-0.249c-0.316-2.907-0.53-5.869-0.671-8.655
			c1.503-1.62,5.025-5.534,5.786-7.436c0.972-2.431,1.07-4.863-1.07-4.863c-1.632,0-3.914,4.913-4.908,7.249
			c-0.06-2.318-0.077-4.353-0.076-5.91c0.864-1.889,2.671-5.993,3.038-8.049c0.486-2.723,0.486-6.905-1.362-7.392
			c-1.848-0.486-3.89,1.945-4.571,6.322c-0.516,3.316,1.144,7.409,1.979,9.2c-0.004,1.533,0.009,3.499,0.064,5.746
			c-0.983-2.821-3.536-9.342-6.42-10.278c-1.675-0.544-3.501,1.264-2.723,4.571c0.778,3.307,8.169,9.726,8.169,9.726l1.187,1.563
			c0.111,2.118,0.267,4.33,0.477,6.542c-1.795-2.603-5.288-7.178-8.958-9.272c-2.541-1.45-8.85,1.459-5.155,6.224
			c3.133,4.04,11.993,6.751,14.621,7.483c0.4,2.952,0.925,5.777,1.61,8.238c-3.029-3.149-10.092-9.809-14.869-8.914
			c-6.225,1.167-7.392,7.197-1.945,9.726c5.446,2.529,18.284,2.723,18.284,2.723s7.781-3.501,10.698-5.835
			C159.845,398.112,162.763,391.11,156.928,390.332z"/>
	</g>
	<g>
		<g>
			
				<linearGradient id="SVGID_00000101090168798507410020000003904863454353623716_" gradientUnits="userSpaceOnUse" x1="178.1289" y1="237.8314" x2="356.4435" y2="146.0552">
				<stop  offset="0" style="stop-color:#7954B3"/>
				<stop  offset="0.0488" style="stop-color:#7153AE"/>
				<stop  offset="0.2128" style="stop-color:#5951A1"/>
				<stop  offset="0.366" style="stop-color:#4B4F99"/>
				<stop  offset="0.4969" style="stop-color:#464F96"/>
				<stop  offset="0.6394" style="stop-color:#4A4F98"/>
				<stop  offset="0.7788" style="stop-color:#56519F"/>
				<stop  offset="0.9165" style="stop-color:#6952AA"/>
				<stop  offset="1" style="stop-color:#7954B3"/>
			</linearGradient>
			<path style="fill:url(#SVGID_00000101090168798507410020000003904863454353623716_);" d="M159.949,124.558
				c0-1.697,14.589-64.13,90.257-64.13c50.898,0,96.366,33.252,96.366,81.094c0,33.253-24.771,53.612-57.345,67.522
				c-11.536,5.09-11.875,14.591-11.875,25.788v19.002h-55.987v-36.985c0-14.93,0.678-27.145,15.947-36.985
				c20.699-13.234,40.04-14.252,40.04-38.343c0-16.287-12.216-27.823-27.485-27.823c-24.43,0-36.307,20.358-40.037,34.949
				L159.949,124.558z M288.21,311.858c0,21.374-17.305,38.679-39.021,38.679c-21.377,0-38.682-17.305-38.682-38.679
				c0-21.716,17.305-39.021,38.682-39.021C270.905,272.837,288.21,290.142,288.21,311.858z"/>
			<path style="opacity:0.47;fill:none;stroke:#FFFFFF;stroke-miterlimit:10;" d="M159.043,135.596
				c0-1.587,15.131-68.893,85.889-68.893c47.596,0,90.113,31.094,90.113,75.833c0,31.095-23.164,50.133-53.624,63.142
				c-10.787,4.76-11.104,13.644-11.104,24.115v17.769h-52.354v-34.585c0-13.961,0.634-25.384,14.912-34.585
				c19.356-12.375,37.442-13.327,37.442-35.855c0-15.23-11.424-26.018-25.702-26.018c-22.845,0-35.44,27.961-38.929,41.606
				L159.043,135.596z M289.591,307.488c0,19.987-16.182,36.17-36.489,36.17c-19.99,0-36.172-16.182-36.172-36.17
				c0-20.307,16.182-36.489,36.172-36.489C273.409,270.999,289.591,287.181,289.591,307.488z"/>
		</g>
		<g>
			
				<linearGradient id="SVGID_00000083081024160231745000000010660677351279104174_" gradientUnits="userSpaceOnUse" x1="129.9875" y1="197.5543" x2="115.5567" y2="142.0512">
				<stop  offset="0" style="stop-color:#DC911B"/>
				<stop  offset="1" style="stop-color:#E7B142"/>
			</linearGradient>
			<path style="fill:url(#SVGID_00000083081024160231745000000010660677351279104174_);" d="M95.244,147.228
				c-0.126-0.358-1.689-14.598,14.257-20.219c10.726-3.781,22.778-0.15,26.332,9.932c2.47,7.008-1.238,13.138-7.069,18.49
				c-2.053,1.93-1.419,3.957-0.587,6.317l1.411,4.005l-11.799,4.159l-2.747-7.794c-1.109-3.146-1.873-5.771,0.613-8.979
				c3.379-4.326,7.38-5.978,5.59-11.055c-1.21-3.432-4.641-4.956-7.859-3.822c-5.148,1.815-6.139,6.987-5.842,10.339L95.244,147.228
				z M136.187,177.173c1.588,4.504-0.774,9.437-5.35,11.05c-4.505,1.588-9.437-0.774-11.025-5.278
				c-1.613-4.577,0.748-9.509,5.254-11.097C129.641,170.235,134.574,172.597,136.187,177.173z"/>
		</g>
		<g>
			<g>
				
					<linearGradient id="SVGID_00000002362501247297596350000010338059744431558589_" gradientUnits="userSpaceOnUse" x1="363.3344" y1="178.2301" x2="406.6101" y2="178.2301">
					<stop  offset="0" style="stop-color:#DC911B"/>
					<stop  offset="1" style="stop-color:#E7B142"/>
				</linearGradient>
				<path style="fill:url(#SVGID_00000002362501247297596350000010338059744431558589_);" d="M367.81,154.842
					c0.132-0.356,8.032-12.307,23.888-6.437c10.666,3.948,17.614,14.443,13.903,24.469c-2.579,6.968-9.35,9.313-17.255,9.701
					c-2.812,0.172-3.62,2.136-4.489,4.483l-1.474,3.982l-11.732-4.343l2.869-7.75c1.158-3.129,2.248-5.636,6.211-6.513
					c5.364-1.168,9.496,0.119,11.365-4.929c1.263-3.413-0.402-6.778-3.601-7.962c-5.119-1.895-9.187,1.45-11.101,4.218
					L367.81,154.842z M380.158,204.041c-1.658,4.479-6.627,6.763-11.177,5.078c-4.48-1.658-6.764-6.627-5.106-11.106
					c1.685-4.551,6.653-6.835,11.133-5.176C379.558,194.522,381.842,199.491,380.158,204.041z"/>
			</g>
		</g>
		<g>
			<g>
				<path style="fill:#B6B6CE;" d="M172.228,173.077c0.071-0.192,4.335-6.642,12.892-3.474c5.756,2.131,9.506,7.795,7.503,13.205
					c-1.392,3.761-5.046,5.026-9.312,5.236c-1.518,0.093-1.954,1.153-2.423,2.419l-0.796,2.149l-6.331-2.344l1.548-4.183
					c0.625-1.689,1.213-3.042,3.352-3.515c2.895-0.63,5.125,0.064,6.133-2.66c0.682-1.842-0.217-3.658-1.944-4.297
					c-2.763-1.023-4.958,0.782-5.991,2.276L172.228,173.077z M178.892,199.628c-0.895,2.417-3.576,3.65-6.032,2.741
					c-2.418-0.895-3.65-3.576-2.755-5.994c0.909-2.456,3.591-3.688,6.008-2.794C178.569,194.491,179.801,197.173,178.892,199.628z"
					/>
			</g>
		</g>
		<g>
			<g>
				<path style="fill:#E5E5EC;" d="M355.74,95.041c-0.031-0.24,0.887-9.337,11.589-10.725c7.199-0.934,14.239,2.935,15.116,9.702
					c0.61,4.703-2.52,8.037-6.872,10.602c-1.538,0.931-1.412,2.281-1.206,3.865l0.349,2.688l-7.918,1.027l-0.678-5.231
					c-0.274-2.112-0.402-3.852,1.577-5.523c2.685-2.251,5.401-2.75,4.96-6.157c-0.299-2.303-2.238-3.711-4.397-3.431
					c-3.455,0.448-4.761,3.545-5.021,5.677L355.74,95.041z M377.315,119.179c0.392,3.023-1.738,5.788-4.809,6.186
					c-3.023,0.392-5.788-1.738-6.18-4.761c-0.398-3.071,1.732-5.836,4.755-6.228C374.152,113.978,376.917,116.107,377.315,119.179z"
					/>
			</g>
		</g>
	</g>
	<g>
		<g>
			<path style="fill:#D36762;" d="M319.727,361.437l21.625,45.398l-0.573,6.635c3.123,1.652,10.929-9.195,10.929-9.195l-2.259-2.779
				c0,0-6.737-35.047-12.322-40.059H319.727z"/>
			<path style="fill:#282E4E;" d="M340.839,411.927c0,0-1.509,2.428-3.357,4.835c-1.848,2.407-3.757,5.112-2.934,6.37
				c0.824,1.258,9.453-4.732,15.706-8.996c6.253-4.264,5.406-4.386,5.293-5.082c-0.113-0.696-4.173-5.418-4.173-5.418
				s-4.657,6.054-7.413,7.858C341.206,413.299,340.839,411.927,340.839,411.927z"/>
			<path style="fill:#FF897F;" d="M339.204,361.437l-17.615-4.583l5.068,57.72l-5.068,5.007h16.183l-0.81-4.613
				C337.351,409.734,340.137,371.568,339.204,361.437z"/>
			<path style="fill:#FF897F;" d="M340.349,277.371c0,0,7.089,16.326,8.163,23.415c1.074,7.089-9.452,17.615-9.452,17.615
				L340.349,277.371z"/>
			<path style="fill:#FF897F;" d="M319.01,241.925l-1.145,3.367c0,0-2.721,0-3.007,0.859c-0.286,0.859,1.432,2.291,1.432,2.291
				s-1.826,7.232,0.215,10.562c2.041,3.33,14.285,1.504,14.285,1.504s5.048-0.537,7.841-6.122c2.793-5.585,4.833-9.882,3.759-15.467
				c-0.628-3.264-6.476-5.528-12.158-5.358C325.119,233.714,320.656,237.082,319.01,241.925z"/>
			<polygon style="fill:#FF897F;" points="323.594,259.863 322.842,267.275 335.194,265.556 336.176,257.747 			"/>
			<path style="fill:#BDBED1;" d="M330.824,264.644c0,0-9.808-0.018-13.783,9.075c-5.432,12.429-0.179,30.576-0.179,30.576l-1,9.843
				c0,0,1.716,4.263,27.901-0.251l-3.414-9.448c0,0,3.107-21.901,2.332-28.804C341.638,266.344,330.824,264.644,330.824,264.644z"/>
			<path style="fill:#282E4E;" d="M323.993,235.517c0,0-0.238,4.53,2.447,8.45c2.685,3.92,4.189,4.511,4.189,4.511
				s-0.645,2.256-0.269,2.9c0.376,0.645,1.88-2.309,3.759-1.88c1.88,0.43,1.987,4.135,0.215,6.283
				c-1.772,2.148-4.296,1.718-4.296,1.718s-0.806,5.746,2.363,10.311c3.169,4.565,9.237,6.445,14.608,4.135
				c5.37-2.309,7.25-7.411,6.391-12.191c-0.859-4.78-7.089-8.432-7.089-8.432s2.417-10.563-1.718-15.808
				c-4.135-5.245-15.735-5.191-20.139-3.257c0,0-4.243-1.551-6.928,1.292c-2.685,2.843-1.993,7.638,1.071,9.59
				C318.596,243.142,320.794,237.271,323.993,235.517z"/>
			<path style="fill:#D3D5E2;" d="M324.082,271.818l-15.315,18.013l6.606,7.132l18.751-14.693c3.311-2.595,3.743-7.447,0.941-10.585
				h0C332.122,268.388,326.945,268.451,324.082,271.818z"/>
			<path style="fill:#FF897F;" d="M301.646,263.551c0,0,1.432,22.413,1.862,26.924c0.43,4.511,2.399,8.091,6.337,8.378
				c3.171,0.231,5.528-1.891,5.528-1.891l-6.423-34.02L301.646,263.551z"/>
			<path style="fill:#FF897F;" d="M304.904,254.099c0,0-0.68,0.394-1.181,1.289c0,0-1.146,0.322-1.826,1.647
				c0,0-0.394,0.465-0.967,1.683c-0.573,1.217,1.003,5.908,1.003,5.908l7.222-0.6c0,0,1.299-2.801,1.621-4.162
				c0.322-1.361-0.644-2.972-0.931-3.509c-0.286-0.537-0.788-0.358-1.002,0.143c-0.215,0.501,0.179,2.435,0.179,2.435l-0.512,0.716
				c0,0-0.813-0.859-0.706-2.291c0.108-1.432,2.148-4.941,1.432-5.907c-0.716-0.967-2.435,2.148-2.435,2.148
				S305.799,253.67,304.904,254.099z"/>
			
				<linearGradient id="SVGID_00000125595675962339701480000003432886817712086925_" gradientUnits="userSpaceOnUse" x1="337.5984" y1="351.1445" x2="320.9475" y2="318.3977">
				<stop  offset="0.15" style="stop-color:#464F96"/>
				<stop  offset="0.3962" style="stop-color:#4A4F98"/>
				<stop  offset="0.6269" style="stop-color:#55509F"/>
				<stop  offset="0.8507" style="stop-color:#6852A9"/>
				<stop  offset="1" style="stop-color:#7954B3"/>
			</linearGradient>
			<path style="fill:url(#SVGID_00000125595675962339701480000003432886817712086925_);" d="M315.862,314.138l1.859,47.299h21.482
				c0,0,6.542-39.248,4.56-47.55C343.763,313.887,325.957,316.468,315.862,314.138z"/>
			<path style="fill:#282E4E;" d="M323.823,417.373c0,0-2.592,1.205-5.457,2.208c-2.864,1.003-5.943,2.22-5.943,3.723
				c0,1.504,10.501,1.217,18.068,1.074c7.567-0.143,7.853-0.358,8.14-1.002c0.286-0.644-1.452-7.17-1.452-7.17
				s-7.212,2.515-10.506,2.515C323.379,418.721,323.823,417.373,323.823,417.373z"/>
			<path style="fill:none;stroke:#BA6561;stroke-linecap:round;stroke-linejoin:round;stroke-miterlimit:10;" d="M327.929,259.571
				c0,0-1.758,1.15-4.451,1.432"/>
			
				<line style="fill:none;stroke:#BA6561;stroke-linecap:round;stroke-linejoin:round;stroke-miterlimit:10;" x1="302.286" y1="263.857" x2="306.571" y2="263.286"/>
		</g>
		<g>
			<rect x="174.016" y="419.594" style="fill:#FF897F;" width="13.06" height="7.707"/>
			<path style="fill:#282E4E;" d="M174.016,426.373c0,0-0.214,8.35,0,9.706c0,0,6.494,0.357,9.777,0.357s12.632,0.357,15.558-0.357
				c2.926-0.714,1.784-1.927,1.07-3.14c-0.714-1.213-13.631-6.566-13.631-6.566S179.368,427.515,174.016,426.373z"/>
			
				<linearGradient id="SVGID_00000152262963106054669000000013819135334871624581_" gradientUnits="userSpaceOnUse" x1="217.7109" y1="338.0695" x2="158.8777" y2="384.6921">
				<stop  offset="0" style="stop-color:#CD536C"/>
				<stop  offset="1" style="stop-color:#8B1F5A"/>
			</linearGradient>
			<path style="fill:url(#SVGID_00000152262963106054669000000013819135334871624581_);" d="M167.521,315.827
				c0,0-0.428,11.347,0,27.19c0.428,15.843,4.353,79.145,4.353,79.145l16.985,0.785l6.28-107.12H167.521z"/>
			<path style="fill:#FF897F;" d="M185.515,227.617l1.141,3.356c0,0,2.712,0,2.997,0.856c0.285,0.856-1.427,2.284-1.427,2.284
				s1.82,7.208-0.214,10.527c-2.034,3.318-14.238,1.499-14.238,1.499s-5.031-0.535-7.814-6.102
				c-2.783-5.567-4.817-9.848-3.747-15.415c0.626-3.253,6.454-5.51,12.117-5.34C179.426,219.434,183.874,222.791,185.515,227.617z"
				/>
			<polygon style="fill:#FF897F;" points="180.947,245.496 181.696,252.883 169.385,251.17 168.406,243.386 			"/>
			<path style="fill:#282E4E;" d="M181.12,221.624c0,0-1.894,3.14-6.069,4.781c0,0,1.462,5.889,0.321,6.549
				c-1.142,0.659-1.07-0.911-3.354-1.125c-2.284-0.214-2.498,2.712-1.784,5.352c0.714,2.64,3.497,3.283,4.496,3.069
				c0.999-0.214,1.285,0.999-0.714,2.783c-1.998,1.784-5.201,3.602-5.201,3.602s-9.001-8.279-10.571-12.506
				c-1.57-4.228,0-6.583,0-6.583s-1.142-5.489,3.354-8.275c4.496-2.787,13.631-3.429,17.342-3.072
				c3.711,0.357,3.354,2.355,3.354,2.355s1.57,0.143,2.284,2.141c0.714,1.998-0.789,3.604-0.789,3.604
				S182.181,222.287,181.12,221.624z"/>
			
				<linearGradient id="SVGID_00000079480622400706811040000015694437575517356195_" gradientUnits="userSpaceOnUse" x1="192.4062" y1="342.798" x2="172.425" y2="259.9596">
				<stop  offset="0.15" style="stop-color:#464F96"/>
				<stop  offset="0.3962" style="stop-color:#4A4F98"/>
				<stop  offset="0.6269" style="stop-color:#55509F"/>
				<stop  offset="0.8507" style="stop-color:#6852A9"/>
				<stop  offset="1" style="stop-color:#7954B3"/>
			</linearGradient>
			<path style="fill:url(#SVGID_00000079480622400706811040000015694437575517356195_);" d="M169.234,249.968
				c0,0-4.988,7.196-7.311,14.69c-2.323,7.493,5.599,51.169,5.599,51.169h27.619c0,0-0.841-42.382-2.867-49.76
				c-2.587-9.42-10.577-14.041-10.577-14.041L169.234,249.968z"/>
			
				<line style="fill:none;stroke:#F96786;stroke-linecap:round;stroke-linejoin:round;stroke-miterlimit:10;" x1="177.536" y1="316.5" x2="176.878" y2="419.067"/>
			
				<line style="fill:none;stroke:#F96786;stroke-linecap:round;stroke-linejoin:round;stroke-miterlimit:10;" x1="171.673" y1="419.067" x2="189.419" y2="419.067"/>
			
				<linearGradient id="SVGID_00000162325101596086394080000016550115622232985479_" gradientUnits="userSpaceOnUse" x1="160.3841" y1="287.5754" x2="174.3784" y2="259.8271">
				<stop  offset="0" style="stop-color:#464F96"/>
				<stop  offset="0.2789" style="stop-color:#4A4F98"/>
				<stop  offset="0.5606" style="stop-color:#56519F"/>
				<stop  offset="0.8426" style="stop-color:#6A53AB"/>
				<stop  offset="1" style="stop-color:#7954B3"/>
			</linearGradient>
			<path style="fill:url(#SVGID_00000162325101596086394080000016550115622232985479_);" d="M163.601,262.835
				c-3.916,7.12-11.248,21.597-15.348,36.935l11.561,4.71l18.466-33.767c1.263-2.309,1.411-5.087,0.312-7.478
				c-0.026-0.057-0.053-0.114-0.08-0.171C175.591,256.956,166.863,256.903,163.601,262.835z"/>
			<path style="fill:#FF897F;" d="M182.225,322.599c0,0,2.931,0.558,2.931,0s-1.452-1.284-3.07-1.312
				c-0.431-0.007-0.865,0.006-1.274,0.028l0.04-0.319l1.24-0.242c0,0,2.672,0.966,2.839,0.456c0.167-0.51-1.806-1.958-3.008-1.868
				c-0.664,0.049-1.599,0.234-2.312,0.39l-1.284,0.113c0.996-0.649,1.922-0.984,1.699-1.399c-0.26-0.484-0.819-0.409-2.531,0.26
				c-1.114,0.436-2.094,1.059-2.648,1.444l-0.54,0.047l-14.492-15.717l-11.561-4.71c0,0-3.319,7.493,1.82,13.595
				c5.138,6.102,22.587,14.238,22.587,14.238l0.004-0.008c1.907,0.828,7.54-1.417,7.54-1.417l0.006-0.046l1.081-0.183
				c0,0,2.931,0.558,2.931,0c0-0.558-1.452-1.284-3.07-1.312c-0.253-0.004-0.505,0-0.755,0.007l0.012-0.092l1.638-0.278
				c0,0,2.931,0.558,2.931,0c0-0.558-1.451-1.284-3.07-1.312c-0.441-0.008-0.886,0.006-1.303,0.03l0.015-0.12L182.225,322.599z"/>
			<path style="fill:none;stroke:#BA6561;stroke-linecap:round;stroke-linejoin:round;stroke-miterlimit:10;" d="M175.804,244.631
				c0,0,2.789,2.144,5.258,2.001"/>
			<path style="fill:none;stroke:#BA6561;stroke-linecap:round;stroke-linejoin:round;stroke-miterlimit:10;" d="M174.305,320.197
				c0,0,1.516,3.267,1.302,4.66"/>
		</g>
		<g>
			<path style="fill:#FF897F;" d="M400.661,259.494c0,0-7.81,14.107-13.341,25.253l-14.878-12.185l-0.936-1.077
				c-0.23-0.697-0.584-1.53-1.117-2.188c-1.123-1.386-1.365-4.355-2.092-2.875c-0.384,0.782-0.067,2.272,0.316,3.507l-3.104-0.214
				c-0.695-0.232-3.511-1.127-5.224-1.001c-1.964,0.146-1.491,0.909-1.382,1.055c0.095,0.127,2.675,0.447,4.516,1.128l-0.055,0.14
				c-1.174-0.339-2.977-0.777-4.209-0.686c-1.964,0.146-1.491,0.909-1.382,1.055c0.103,0.137,3.103,0.499,4.941,1.297l-0.032,0.082
				c-1.151-0.312-2.678-0.642-3.763-0.561c-1.964,0.146-1.491,0.909-1.382,1.055c0.092,0.123,2.517,0.428,4.342,1.067
				c-0.933-0.141-1.929-0.226-2.692-0.119c-1.95,0.274-1.429,1.005-1.31,1.143c0.086,0.1,1.893,0.222,3.581,0.58l6.977,2.425
				c2.225,3.966,10.077,17.213,17.509,20.583c2.253,1.021,5.341-0.178,6.89-2.106l8.691-10.812L400.661,259.494z"/>
			<path style="fill:#FF897F;" d="M404.735,393.425l2.328,25.462l-4.056,4.711c0,0,1.255,3.874,13.659-0.637l-1.309-5.618
				c0,0,1.746-17.807,1.309-23.336L404.735,393.425z"/>
			<path style="fill:#FF897F;" d="M434.416,393.425l5.674,25.462l0.582,4.947c0,0,5.111,5.929,12.695,2.001l-5.274-8.402
				l-2.182-24.007H434.416z"/>
			<path style="fill:#464F96;" d="M403.425,422.779c0,0-8.075,6.147-8.221,7.384c-0.146,1.237,0.582,1.601,2.619,1.819
				c2.037,0.218,12.295-1.31,15.932-2.037c3.637-0.727,3.783-1.382,3.783-1.382s0.386-2.91-1.153-6.802
				c0,0-2.957,2.819-10.651,2.437C403.985,424.111,403.425,422.779,403.425,422.779z"/>
			<path style="fill:#464F96;" d="M440.309,420.74c0,0,0.073,7.932,1.164,10.114c1.091,2.182,6.329,3.71,8.948,4.474
				c2.619,0.764,8.948,1.2,9.93-0.982c0.982-2.183-6.984-8.512-6.984-8.512s-4.911,0.774-7.529,0.491S440.309,420.74,440.309,420.74
				z"/>
			
				<linearGradient id="SVGID_00000053523255739907083230000000583521065546121645_" gradientUnits="userSpaceOnUse" x1="397.3372" y1="336.2794" x2="453.3671" y2="336.2794">
				<stop  offset="0" style="stop-color:#CD536C"/>
				<stop  offset="1" style="stop-color:#8B1F5A"/>
			</linearGradient>
			<path style="fill:url(#SVGID_00000053523255739907083230000000583521065546121645_);" d="M439.508,327.66
				c-1.359-7.197-3.717-13.973-7.635-20.071l-2.17-10.685c2.003-5.486,8.406-23.988,8.35-36.146l-15.42-4.462L414.135,256
				c0,0-5.142,0.981-13.474,3.494c0,0-3.784,14.952-3.277,22.228c0.356,5.101,1.776,10.525,2.594,13.318h-0.001l-0.19,12.977
				l-1.964,105.113l21.388,1.683l-0.8-75.513l1.68,0.69l12.87,76.569l20.406-2.619C453.367,413.94,440.934,335.205,439.508,327.66z"
				/>
			<path style="fill:none;stroke:#F96786;stroke-linecap:round;stroke-linejoin:round;stroke-miterlimit:10;" d="M411.054,257.143
				c0,0-2.357,2.143-1.018,3.911c1.339,1.768,4.713-0.362,4.713-0.362s3.001,2.666,6.698,1.648c3.697-1.018,4.5-5.196,4.5-5.196"/>
			<path style="fill:#FF897F;" d="M438.292,260.759c0,0-6.457,7.084-6.808,14.349c-0.283,5.852,11.722,18.201,15.809,23.382
				l-15.53,14.043l-0.547,0.089c-0.29-0.162-0.845-0.419-1.783-0.676c-1.528-0.418-3.528-0.2-3.692,0
				c-0.164,0.2,0.036,0.509,0.728,0.637c0.691,0.127,1.382,0.127,1.382,0.127l0.646,0.353l-2.602,0.422
				c-0.938,0.027-2.601,0.113-3.627,0.388c-1.491,0.4-2.983,1.546-2.728,2.055c0.255,0.509,2.055-0.291,2.892-0.727l2.669-0.04
				l0.095,0.144c-0.832,0.055-1.769,0.153-2.437,0.332c-1.491,0.4-2.983,1.546-2.728,2.055c0.254,0.509,2.055-0.291,2.892-0.727
				l3.337-0.049l0.049,0.073c-0.722,0.059-1.476,0.152-2.039,0.303c-1.491,0.4-2.983,1.546-2.728,2.055
				c0.255,0.509,2.055-0.291,2.892-0.727l2.925-0.043l0.01,0.015c-0.319,0.048-0.62,0.104-0.879,0.174
				c-1.491,0.4-2.983,1.546-2.728,2.055c0.255,0.509,2.055-0.291,2.892-0.727l1.691-0.025l0,0c0,0,4.984,0.552,7.14-2.681
				c3.587-1.683,20.171-11.977,22.142-15.554C460.485,296.64,438.292,260.759,438.292,260.759z"/>
			<path style="fill:#282E4E;" d="M404.814,241.91c0,0-2.165,7.018-1.901,11.663c0.264,4.646,4.747,3.743,5.855,3.338
				c1.108-0.404,2.793,1.556,4.232,0.926c1.439-0.629-0.476-4.199-0.476-4.199L404.814,241.91z"/>
			<path style="fill:#FF897F;" d="M412.219,251.293l0.255,8.753c0,0,0.869,0.67,3.369,0.713c2.499,0.042,6.206-2.373,6.206-2.373
				l-0.475-8.815L412.219,251.293z"/>
			<path style="fill:#FF897F;" d="M426.77,238.534c-0.767-0.051-1.384,0.058-1.885,0.25c0.45-4.291,0.417-7.992,0.417-7.992
				l-20.279-1.225c0,0-1.326,10.435-0.239,16.396c0.529,2.905,2.417,5.103,4.213,6.594c2.251,1.868,5.34,2.252,8.002,1.04
				c2.246-1.023,4.768-2.792,5.97-5.791c0.05-0.124,0.097-0.253,0.145-0.381c1.05-0.344,2.663-1.05,4.125-2.44
				C429.658,242.688,429.973,238.748,426.77,238.534z"/>
			<path style="fill:#282E4E;" d="M411.971,234.475c3.92,1.74,9.109,0.799,9.109,0.799s-0.826,2.626-0.198,4.732
				c0.629,2.113,1.887,2.313,1.887,2.313s1.525-3.448,3.535-3.122c2.009,0.326,1.322,4.24-0.206,5.884
				c-1.528,1.644-3.08,1.632-3.08,1.632s-2.061,2.506-1.444,5.016c0,0,0.378,5.401,0.475,6.657c0,0,0.794,0.929,2.796-0.15
				c2.002-1.078,4.618,1.034,8.185-1.232c3.567-2.266,3.12-5.58,1.203-10.229c-1.917-4.649-2.644-10.31-2.644-10.31
				s-0.135-6.682-2.022-10.097c-1.886-3.415-5.214-4.723-9.065-5.502c-3.851-0.779-6.756,0.676-6.756,0.676
				s-8.161,0.95-10.855,5.831c-4.788,8.673,1.468,12.098,1.468,12.098s2.673-3.318,3.371-9.134
				C407.729,230.336,409.309,233.293,411.971,234.475z"/>
			<path style="fill:none;stroke:#F96786;stroke-miterlimit:10;" d="M401.526,286.041c0,0,5.617-1.898,9.045-1.898
				c3.429,0,12.429,3,12.429,3"/>
			<path style="fill:none;stroke:#F96786;stroke-linecap:round;stroke-linejoin:round;stroke-miterlimit:10;" d="M414.749,260.691
				c0,0-1.231,5.719-0.963,9.684"/>
			<path style="fill:none;stroke:#F96786;stroke-linecap:round;stroke-linejoin:round;stroke-miterlimit:10;" d="M409.857,333.857
				c0,0,7.753,1.978,10.234,6.132"/>
			
				<line style="fill:none;stroke:#F96786;stroke-linecap:round;stroke-linejoin:round;stroke-miterlimit:10;" x1="432.23" y1="412.212" x2="452.713" y2="409.799"/>
			
				<line style="fill:none;stroke:#F96786;stroke-linecap:round;stroke-linejoin:round;stroke-miterlimit:10;" x1="397.902" y1="408.945" x2="419.172" y2="411.07"/>
			<path style="fill:none;stroke:#BA6561;stroke-linecap:round;stroke-linejoin:round;stroke-miterlimit:10;" d="M447.293,298.49
				c0,0,4.442,0.796,6.074,1.653"/>
			<path style="fill:none;stroke:#BA6561;stroke-linecap:round;stroke-linejoin:round;stroke-miterlimit:10;" d="M387.32,284.747
				c0,0,0.463,4.395,0,7.538"/>
			<path style="fill:none;stroke:#BA6561;stroke-linecap:round;stroke-linejoin:round;stroke-miterlimit:10;" d="M412.524,254.295
				c0,0,4.027,0.832,8.394-3.374"/>
		</g>
		<g>
			<path style="fill:#FF897F;" d="M78.582,392.727l2.544,23.659l-2.544,12.339c0,0-0.636,0.89,4.961,1.781
				c5.597,0.89,8.65-1.399,8.65-1.399l-2.035-13.102l0.89-21.243L78.582,392.727z"/>
			<polygon style="fill:#FF897F;" points="111.4,393.617 116.36,415.115 117.887,425.29 138.875,425.799 126.791,415.115 
				122.848,391.709 			"/>
			<path style="fill:#464F96;" d="M80.235,421.299c0,0,1.04,3.527,4.627,3.911c5.486,0.588,6.154-3.678,6.154-3.678
				s1.94,7.701,2.003,9.482c0.064,1.781-3.864,4.07-7.785,4.07c-4.426,0-6.588-2.29-7.606-3.816
				C76.61,429.742,80.235,421.299,80.235,421.299z"/>
			<path style="fill:#464F96;" d="M116.799,418.041c0,0-0.388,4.451,0,6.359c0.388,1.908,0.833,3.117,1.278,3.244
				c0.445,0.127,7.823,0.461,9.604,0.548c1.781,0.087,10.049,0.421,12.529,0c2.48-0.421,2.926-0.548,3.307-1.63
				c0.382-1.081-11.12-6.49-11.12-6.49s-2.681,1.052-6.879,1.227C121.321,421.474,118.574,417.915,116.799,418.041z"/>
			<polygon style="fill:#FF897F;" points="92.082,238.293 92.082,246.662 81.903,246.04 80.295,234.245 			"/>
			<path style="fill:#FF897F;" d="M147.049,248.095c-1.27-0.444-3.038-0.308-4.198-0.14l-0.026-0.463
				c1.822-0.344,5.345-0.89,3.543-1.437c-2.075-0.629-5.382,0.303-5.382,0.304l-3.13-0.849c0.876-1.257,1.611-3.937,0.88-3.574
				c-0.687,0.341-3.338,3.969-4.077,4.925l-13.666,14.786v0l-19.575-17.599c-2.093,2.233-2.705,13.042,0.389,18.176
				c3.093,5.134,19.478,11.223,19.478,11.223c6.517-0.184,14.606-15.366,16.992-20.145l3.313-0.07c0,0,0.932-0.048,1.552-0.11h0.001
				c1.886-0.189,4.356-0.463,2.838-1.062c-0.851-0.335-1.941-0.411-2.919-0.387l-0.024-0.427c1.809-0.267,5.484-0.666,3.68-1.298
				c-1.121-0.392-2.628-0.331-3.764-0.197l-0.016-0.291C144.474,249.196,149.016,248.783,147.049,248.095z"/>
			<path style="fill:#FF897F;" d="M95.286,214.392c0,0,3.641,12.553,3.943,18.133c0.302,5.579-3.264,8.821-7.939,8.821
				s-8.671-2.827-8.671-2.827l-5.837-10.733c-2.175-3.999-0.911-9.015,2.927-11.462c1.577-1.005,3.342-1.971,5.173-2.686
				C91.064,211.225,95.286,214.392,95.286,214.392z"/>
			<path style="fill:#FF897F;" d="M78.623,228.34c0,0-3.242-1.131-4.298,0.905c-1.056,2.036,1.462,5.206,3.694,6.258
				c2.232,1.052,5.504,0,5.504,0L78.623,228.34z"/>
			
				<linearGradient id="SVGID_00000115503706800573668060000008873231087680593807_" gradientUnits="userSpaceOnUse" x1="81.2417" y1="245.6377" x2="99.0027" y2="312.7961">
				<stop  offset="0" style="stop-color:#CD536C"/>
				<stop  offset="1" style="stop-color:#8B1F5A"/>
			</linearGradient>
			<path style="fill:url(#SVGID_00000115503706800573668060000008873231087680593807_);" d="M113.385,299.741
				c0,0-4.983,3.021-15.687,3.623c-4.478,0.253-9.344,0.136-13.482-0.087c-5.77-0.301-10.14-0.816-10.14-0.816l1.642-20.514
				l-8.208-33.597c3.623-2.865,13.987-5.303,13.987-5.303s4.692,3.613,9.266,3.166c1.564-0.155,1.321-3.642,1.321-3.642
				s5.886-0.369,8.547,0.651c0.398,0.146,0.729,0.33,0.952,0.554c6.624,6.605,4.856,37.114,4.856,37.114L113.385,299.741z"/>
			<path style="fill:#282E4E;" d="M93.835,213.977c0,0-0.452,2.884-3.506,5.994c-3.053,3.11-5.881,3.28-5.881,3.28
				s-0.792,1.696-2.036,2.545c-1.244,0.848-1.244,0.848-1.244,0.848s0.961,2.714,0.509,4.693c0,0-2.454-3.557-4.761-3.305
				c-2.307,0.252-3.268,2.934-1.741,5.042c1.526,2.108,4.589,2.93,5.315,2.896l0.803,5.592c0,0-1.602,0.518-4.018-0.339
				c-0.042-0.015-0.082-0.032-0.122-0.05c-1.131-0.507-2.432,1.133-4.807,1.189c-2.375,0.057-2.827-1.414-4.806-0.792
				c-1.979,0.622-5.768,1.301-7.068-2.714c-1.301-4.015,1.866-5.202,0.848-7.577c-1.018-2.375,0.283-4.185,2.375-5.315
				c2.092-1.131,0-7.068,3.11-9.443c3.11-2.375,3.902-2.601,4.58-4.072c0.678-1.47,3.576-2.937,6.197-2.831
				c3.273,0.132,2.547-3.139,7.148-2.691c5.428,0.528,6.503,2.809,6.503,2.809s2.455-0.07,5.202,2.318
				c4.467,3.883,3.62,9.105,1.518,12.748C97.954,224.803,95.192,215.447,93.835,213.977z"/>
			<path style="fill:#FF897F;" d="M67.886,247.62l-18.008,19.2l0,0l-14.874-13.57c-0.818-0.889-3.768-4.279-4.481-4.561
				c-0.759-0.299,0.202,2.308,1.181,3.486l-3.047,1.112c-0.001,0-3.374-0.648-5.389,0.155c-1.749,0.698,1.808,0.942,3.652,1.13
				l0.013,0.464c-1.17-0.068-2.943-0.054-4.171,0.497c-1.902,0.853,2.66,0.878,4.215,1.012l0.008,0.291
				c-1.144-0.038-2.65,0.03-3.734,0.516c-1.744,0.782,1.951,0.868,3.777,0.98l0.012,0.428c-0.977,0.06-2.056,0.227-2.876,0.634
				c-1.462,0.726,1.022,0.789,2.918,0.816h0.001c0.623,0.009,1.556-0.022,1.556-0.022l3.307-0.213
				c2.785,4.559,12.135,18.998,18.644,18.627c0,0,19.08-10.113,21.726-15.491C74.963,257.733,70.162,249.668,67.886,247.62z"/>
			
				<linearGradient id="SVGID_00000014616088315883851120000008130224009964358300_" gradientUnits="userSpaceOnUse" x1="81.1077" y1="296.8826" x2="108.0167" y2="398.6321">
				<stop  offset="0" style="stop-color:#464F96"/>
				<stop  offset="0.2789" style="stop-color:#4A4F98"/>
				<stop  offset="0.5606" style="stop-color:#56519F"/>
				<stop  offset="0.8426" style="stop-color:#6A53AB"/>
				<stop  offset="1" style="stop-color:#7954B3"/>
			</linearGradient>
			<path style="fill:url(#SVGID_00000014616088315883851120000008130224009964358300_);" d="M127.935,393.364l-4.954,0.806
				l-12.345,1.991L97.66,327.986l-1.777-2.292v70.468H75.786c0,0-5.342-49.604-5.342-64.621c0-15.007,3.934-32.879,3.934-32.879
				c19.717,6.051,38.065-1.476,38.065-1.476c0.185,0.466,0.359,0.962,0.554,1.486C120.223,319.701,127.935,393.364,127.935,393.364z
				"/>
			<path style="fill:none;stroke:#BA6561;stroke-linecap:round;stroke-linejoin:round;stroke-miterlimit:10;" d="M49.879,266.82
				c0,0,2.979,3.18,4.264,5.323"/>
			<path style="fill:none;stroke:#BA6561;stroke-linecap:round;stroke-linejoin:round;stroke-miterlimit:10;" d="M120.992,261.647
				c0,0-0.865,3.067,0,5.782"/>
			<path style="fill:none;stroke:#BA6561;stroke-linecap:round;stroke-linejoin:round;stroke-miterlimit:10;" d="M92.082,241.346
				c0,0-7.068,0.971-10.396-4.545"/>
			
				<line style="fill:none;stroke:#F96786;stroke-linecap:round;stroke-linejoin:round;stroke-miterlimit:10;" x1="76.571" y1="281.457" x2="80.295" y2="282.714"/>
			<path style="fill:none;stroke:#7954B3;stroke-miterlimit:10;" d="M72.057,311.845c0,0,6.608-1.361,7.598-9.033"/>
			<path style="fill:none;stroke:#7954B3;stroke-miterlimit:10;" d="M73.816,301.421c0,0,20.955,6.775,39.57-1.68"/>
			<path style="fill:none;stroke:#7954B3;stroke-miterlimit:10;" d="M95.882,325.694c0,0,1.51-4.587,5.368-6.729"/>
			<path style="fill:none;stroke:#7954B3;stroke-miterlimit:10;" d="M109.435,301.302c0,0,2.285,6.921,6.479,8.38"/>
			<path style="fill:none;stroke:#7954B3;stroke-miterlimit:10;" d="M75.178,390.372c0,0,7.26,1.09,20.705,0"/>
			<path style="fill:none;stroke:#7954B3;stroke-miterlimit:10;" d="M127.262,387.193c0,0-9.292,2.332-17.813,2.73"/>
			<path style="fill:none;stroke:#F96786;stroke-linecap:round;stroke-linejoin:round;stroke-miterlimit:10;" d="M78.801,243.749
				c0,0,4.396,4.233,10.771,4.233s4.338-5.473,4.338-5.473"/>
			<path style="fill:none;stroke:#F96786;stroke-linecap:round;stroke-linejoin:round;stroke-miterlimit:10;" d="M84.107,269.036
				c0,0,9.429-1.859,17.571-2.215"/>
		</g>
	</g>
</g>
</svg>
